<?xml version="1.0" encoding="UTF-8" standalone="no"?>
<svg
   xmlns:dc="http://purl.org/dc/elements/1.1/"
   xmlns:cc="http://creativecommons.org/ns#"
   xmlns:rdf="http://www.w3.org/1999/02/22-rdf-syntax-ns#"
   xmlns:svg="http://www.w3.org/2000/svg"
   xmlns="http://www.w3.org/2000/svg"
   xmlns:sodipodi="http://sodipodi.sourceforge.net/DTD/sodipodi-0.dtd"
   xmlns:inkscape="http://www.inkscape.org/namespaces/inkscape"
   version="1.1"
   viewBox="0 0 586.65576 283.09213"
   id="svg2"
   inkscape:version="0.91 r13725"
   sodipodi:docname="logo-splash.svg">
  <metadata
     id="metadata82">
    <rdf:RDF>
      <cc:Work
         rdf:about="">
        <dc:format>image/svg+xml</dc:format>
        <dc:type
           rdf:resource="http://purl.org/dc/dcmitype/StillImage" />
      </cc:Work>
    </rdf:RDF>
  </metadata>
  <sodipodi:namedview
     pagecolor="#ffffff"
     bordercolor="#666666"
     borderopacity="1"
     objecttolerance="10"
     gridtolerance="10"
     guidetolerance="10"
     inkscape:pageopacity="0"
     inkscape:pageshadow="2"
     inkscape:window-width="1600"
     inkscape:window-height="1151"
     id="namedview80"
     showgrid="false"
     inkscape:zoom="0.4994411"
     inkscape:cx="-62.839583"
     inkscape:cy="-179.2996"
     inkscape:window-x="0"
     inkscape:window-y="0"
     inkscape:window-maximized="1"
     inkscape:current-layer="svg2" />
  <defs
     id="defs4">
    <clipPath
       id="b"
       clipPathUnits="userSpaceOnUse">
      <path
         d="m0 612h792v-612h-792v612z"
         id="path7" />
    </clipPath>
    <clipPath
       id="a"
       clipPathUnits="userSpaceOnUse">
      <path
         d="m331.02 424.87h116.24v-113.76h-116.24v113.76z"
         id="path10" />
    </clipPath>
  </defs>
  <g
     transform="translate(-.95784 -2.2447)"
     id="g12">
    <g
       transform="matrix(1.25 0 0 -1.25 -201.86 533.34)"
       id="g14">
      <g
         clip-path="url(#b)"
         id="g16">
        <g
           transform="translate(624.62 215.96)"
           id="g18">
          <path
             d="m0 0c-2.896 0-5.252 2.356-5.252 5.252 0 2.897 2.356 5.252 5.252 5.252s5.252-2.355 5.252-5.252c0-2.896-2.356-5.252-5.252-5.252m6.963 5.252c0 3.84-3.123 6.964-6.963 6.964s-6.963-3.124-6.963-6.964 3.123-6.963 6.963-6.963 6.963 3.123 6.963 6.963"
             fill="#4e4640"
             id="path20" />
        </g>
        <g
           transform="translate(625.8 222.43)"
           id="g22">
          <path
             d="m0 0c0-0.614-0.39-1.024-1.112-1.024h-1.042v2.058h1.013c0.722 0 1.141-0.342 1.141-1.024v-0.01zm1.424 0.039v0.039c0 0.673-0.205 1.209-0.576 1.58-0.429 0.428-1.062 0.652-1.852 0.652h-2.563v-6.823h1.413v2.242h0.886l1.258-2.242h1.619l-1.453 2.535c0.751 0.331 1.268 0.984 1.268 2.017"
             fill="#4e4640"
             id="path24" />
        </g>
        <g
           transform="translate(174.11 241.74)"
           id="g26">
          <path
             d="m0 0v0.629c0 10.39 5.352 18.048 13.641 18.048 8.079 0 13.851-7.765 13.851-18.152v-0.63c0-10.387-5.352-18.152-13.641-18.152-8.08 0-13.851 7.869-13.851 18.257m39.348-0.209v0.945c0 16.474-10.807 28.435-25.497 28.435-14.796 0-25.708-12.172-25.708-28.542v-0.943c0-16.474 10.808-28.331 25.498-28.331 14.795 0 25.707 12.066 25.707 28.436"
             fill="#4e4640"
             id="path28" />
        </g>
        <g
           transform="translate(231.81 241.53)"
           id="g30">
          <path
             d="m0 0v1.049c0 10.913 6.086 17.837 13.221 17.837s12.906-6.82 12.906-17.941v-0.945c0-11.123-5.666-17.839-12.906-17.839-7.135 0-13.221 6.927-13.221 17.839m38.09-0.211v1.469c0 18.784-10.494 28.122-21.616 28.122-7.975 0-12.802-4.617-16.264-9.969v8.92h-11.857v-71.458h11.857v24.239c3.358-4.931 8.185-9.443 16.264-9.443 11.227 0 21.616 9.443 21.616 28.12"
             fill="#4e4640"
             id="path32" />
        </g>
        <g
           transform="translate(300.09 260.94)"
           id="g34">
          <path
             d="m0 0c6.925 0 10.912-6.4 11.542-15.214h-23.504c0.84 9.443 5.457 15.214 11.962 15.214m21.196-39.244-6.191 7.347c-3.673-3.568-7.555-5.877-12.801-5.877-7.24 0-13.012 5.037-14.061 14.375h34.836c0.105 1.679 0.105 3.359 0.105 4.093 0 16.683-7.974 29.276-23.084 29.276-13.641 0-23.714-11.962-23.714-28.647v-0.838c0-17.419 11.122-28.331 25.393-28.331 8.29 0 14.48 3.252 19.517 8.602"
             fill="#4e4640"
             id="path36" />
        </g>
        <g
           transform="translate(357.99 270.91)"
           id="g38">
          <path
             d="m0 0c-7.555 0-12.067-4.303-15.215-9.234v8.185h-11.857v-55.613h11.857v33.682c0 7.66 4.303 12.277 10.493 12.277 6.296 0 9.968-4.302 9.968-12.066v-33.893h11.857v37.249c0 11.857-6.401 19.413-17.103 19.413"
             fill="#4e4640"
             id="path40" />
        </g>
        <g
           transform="translate(422.89 230.09)"
           id="g42">
          <path
             d="m0 0v0.105c0 8.709-6.506 12.695-15.11 16.578-6.506 2.939-10.913 4.826-10.913 8.499v0.211c0 3.043 2.623 5.455 7.03 5.455s9.024-2.099 13.221-4.931l5.037 8.709c-5.246 3.777-11.857 5.98-18.048 5.98-10.387 0-18.362-6.295-18.362-16.263v-0.211c0-9.127 6.925-12.906 15.215-16.472 6.61-2.834 10.912-4.617 10.912-8.605v-0.104c0-3.463-2.833-6.087-7.765-6.087-4.931 0-10.283 2.414-15.319 6.505l-5.562-8.498c6.401-5.351 14.061-7.765 20.671-7.765 10.704 0 18.993 5.982 18.993 16.894"
             fill="#4e4640"
             id="path44" />
        </g>
        <g
           transform="translate(459.6 215.82)"
           id="g46">
          <path
             d="m0 0v9.759c-1.994-1.05-4.092-1.574-6.401-1.574-3.778 0-5.981 1.783-5.981 6.086v29.589h12.487v10.179h-12.487v15.005h-11.857v-15.005h-6.086l1.948-10.179h4.138v-32.003c0-10.808 6.191-14.271 14.376-14.271 3.987 0 7.134 0.945 9.863 2.414"
             fill="#4e4640"
             id="path48" />
        </g>
        <g
           transform="translate(499.16 232.92)"
           id="g50">
          <path
             d="m0 0c0-6.295-5.246-10.912-12.067-10.808-5.141 0.105-9.023 3.254-9.023 8.814v0.211c0 5.875 3.987 9.339 10.807 9.339 3.988 0 7.555-0.841 10.283-1.994v-5.562zm5.876 31.899c-3.567 3.672-9.128 5.666-16.368 5.666-7.45 0-13.012-1.785-18.364-4.408l3.358-9.443c3.673 1.679 8.08 3.359 13.431 3.359 7.556 0 11.962-3.884 11.962-11.333v-2.309c-3.777 1.26-7.554 2.203-12.801 2.203-11.752 0-19.727-5.875-19.727-17.837v-0.525c0-10.807 7.765-16.998 16.999-16.998 7.24 0 12.172 3.147 15.424 7.869v-6.82h11.647v34.522c0 6.924-1.888 12.382-5.561 16.054"
             fill="#4e4640"
             id="path52" />
        </g>
        <g
           transform="translate(561 221.48)"
           id="g54">
          <path
             d="m0 0-6.4 7.869c-3.253-3.252-6.506-5.666-11.332-5.666-8.081 0-13.746 7.24-13.746 18.048v0.525c0 10.494 5.665 17.943 13.431 17.943 5.036 0 8.289-2.519 11.227-5.562l6.611 8.71c-4.617 4.617-9.864 7.555-17.838 7.555-14.586 0-25.393-11.961-25.393-28.542v-1.049c0-16.579 10.493-28.225 24.973-28.225 8.499 0 14.06 3.461 18.467 8.394"
             fill="#4e4640"
             id="path56" />
        </g>
        <g
           transform="translate(597.29 243.11)"
           id="g58">
          <path
             d="m0 0-8.323-8.946 11.164-19.918h13.745l-16.586 28.864z"
             fill="#4e4640"
             id="path60" />
        </g>
        <g
           transform="translate(599.29 269.86)"
           id="g62">
          <path
             d="m0 0-18.992-24.45v44.596h-11.857v-75.759h11.857v16.054l33.053 39.559h-14.061z"
             fill="#4e4640"
             id="path64" />
        </g>
      </g>
    </g>
  </g>
  <g
     id="g4247"
     transform="matrix(0.38638253,0,0,0.38653848,116.24191,-185.12983)"
     style="stroke-width:18.33722687;stroke-miterlimit:5.63636398;stroke-dasharray:none">
    <path
       id="rect4210"
       d="m 96.107422,430.25586 a 151.16898,146.16338 0 0 0 -133.089844,76.93945 87.097359,87.097359 0 0 0 -40.103516,-9.86328 87.097359,87.097359 0 0 0 -87.097652,87.09766 87.097359,87.097359 0 0 0 0.94336,12.125 c -30.48277,17.07892 -51,49.64775 -51,87.18554 0,55.35093 44.6,99.91211 100,99.91211 l 299.82421,0 c 55.4,0 100,-44.56118 100,-99.91211 0,-33.23982 -16.08899,-62.58318 -40.9375,-80.72656 A 151.16898,146.16338 0 0 0 247.27734,576.41992 151.16898,146.16338 0 0 0 96.107422,430.25586 Z"
       style="fill:none;fill-opacity:1;fill-rule:nonzero;stroke:#000000;stroke-width:18.33722687;stroke-linecap:round;stroke-linejoin:round;stroke-miterlimit:5.63636398;stroke-dasharray:none;stroke-opacity:1"
       inkscape:connector-curvature="0" />
    <path
       sodipodi:nodetypes="cccccccc"
       inkscape:connector-curvature="0"
       id="path4239"
       d="m 7.9291711,786.94824 -29.2827321,52.83418 47.132373,0.7079 -69.828047,97.33366 163.078725,-97.33366 -52.083337,0 27.159033,-53.83531 z"
       style="fill:#000000;fill-opacity:1;fill-rule:evenodd;stroke:#000000;stroke-width:18.33722687;stroke-linecap:butt;stroke-linejoin:round;stroke-miterlimit:5.63636398;stroke-dasharray:none;stroke-opacity:1" />
  </g>
  <text
     xml:space="preserve"
     style="font-style:normal;font-variant:normal;font-weight:normal;font-stretch:normal;font-size:40px;line-height:125%;font-family:'Abyssinica SIL';-inkscape-font-specification:'Abyssinica SIL';letter-spacing:0px;word-spacing:0px;fill:#000000;fill-opacity:1;stroke:none;stroke-width:1px;stroke-linecap:butt;stroke-linejoin:miter;stroke-opacity:1"
     x="249.94518"
     y="64.114761"
     id="text4241"
     sodipodi:linespacing="125%"><tspan
       sodipodi:role="line"
       id="tspan4243"
       x="249.94518"
       y="64.114761"
       style="font-style:normal;font-variant:normal;font-weight:bold;font-stretch:normal;font-size:75px;font-family:'Bitstream Vera Sans Mono';-inkscape-font-specification:'Bitstream Vera Sans Mono'">Hades</tspan><tspan
       sodipodi:role="line"
       x="249.94518"
       y="157.86476"
       style="font-style:normal;font-variant:normal;font-weight:normal;font-stretch:normal;font-size:75px;font-family:'Bitstream Vera Sans Mono';-inkscape-font-specification:'Bitstream Vera Sans Mono'"
       id="tspan4245">cluster</tspan></text>
</svg>
